# xmcd
#
# Track frame offsets:
#	150
#	17978
#	34949
#	49621
#	61088
#	76272
#	91116
#	113563
#	128887
#	143438
#	155828
#	171321
#	189018
#	206860
#	224045
#	239131
#
# Disc length: 3397 seconds
#
# Revision: 0
# Processed by: cddbd v1.5.1PL0 Copyright (c) Steve Scherf et al.
# Submitted via: dBpowerAMP V4.0
#
DISCID=df0d4310
DTITLE=Paul Bailey - By Request Vol 2
DYEAR=1900
DGENRE=
TTITLE0=Just A Kiss
TTITLE1=Lovin' All Night
TTITLE2=Land Of Enchantment
TTITLE3=Try A Little Kindness
TTITLE4=Closer
TTITLE5=Old Soldiers
TTITLE6=The River
TTITLE7=Seeing My Father In me
TTITLE8=I Said I Loved You
TTITLE9=Come Dance With Me
TTITLE10=Teach Me To Dance
TTITLE11=Rock Around The Clock (Medley)
TTITLE12=Labelled With Love
TTITLE13=Somebody Like You
TTITLE14=Tonight We Just Might Fall In Love Again
TTITLE15=Fields Of Gold
EXTD=
EXTT0=
EXTT1=
EXTT2=
EXTT3=
EXTT4=
EXTT5=
EXTT6=
EXTT7=
EXTT8=
EXTT9=
EXTT10=
EXTT11=
EXTT12=
EXTT13=
EXTT14=
EXTT15=
PLAYORDER=
